<svg xmlns="http://www.w3.org/2000/svg" xmlns:svg="http://www.w3.org/2000/svg" id="svg97" width="600" height="300" version="1.1" viewBox="0 0 600 300"><defs id="defs7"><style id="style2">.cls-1,.cls-10,.cls-11,.cls-12,.cls-13,.cls-14,.cls-15,.cls-16,.cls-18,.cls-19,.cls-4,.cls-6,.cls-7,.cls-8{fill:none}.cls-2{fill:#d17c61}.cls-3{clip-path:url(#clip-path)}.cls-4{stroke:#fbc0af;stroke-width:8px;stroke-dasharray:15}.cls-10,.cls-11,.cls-15,.cls-16,.cls-18,.cls-19,.cls-4,.cls-6,.cls-7,.cls-8{stroke-linecap:round}.cls-10,.cls-11,.cls-12,.cls-13,.cls-14,.cls-18,.cls-19,.cls-4,.cls-5,.cls-6,.cls-7,.cls-8,.cls-9{stroke-miterlimit:10}.cls-17,.cls-5,.cls-9{fill:#f7956d}.cls-10,.cls-11,.cls-12,.cls-13,.cls-14,.cls-15,.cls-16,.cls-18,.cls-19,.cls-5,.cls-6,.cls-7,.cls-8,.cls-9{stroke:#fff0d9}.cls-12,.cls-13,.cls-14,.cls-5,.cls-6,.cls-7,.cls-8{stroke-width:4px}.cls-7{stroke-dasharray:7.66 7.66}.cls-8{stroke-dasharray:8}.cls-10,.cls-11,.cls-16,.cls-18,.cls-19,.cls-9{stroke-width:6px}.cls-11{stroke-dasharray:9.36 9.36}.cls-13{stroke-dasharray:10.67 10.67}.cls-14{stroke-dasharray:10.11 10.11}.cls-15,.cls-16{stroke-linejoin:bevel}.cls-15{stroke-width:12px}.cls-18{stroke-dasharray:8.18 8.18}.cls-19{stroke-dasharray:8.84 8.84}</style><clipPath id="clip-path" transform="translate(84.33 203.26)"><rect id="rect4" width="600" height="300" x="0" y="0" class="cls-1"/></clipPath></defs><g id="background" transform="translate(-84.330002,-203.25999)"><rect id="rect9" width="600" height="300" x="84.33" y="203.26" class="cls-2"/></g><g id="background_the_second" data-name="background the second" transform="translate(-84.330002,-203.25999)"><g id="g18" class="cls-3" clip-path="url(#clip-path)"><line id="line12" x1="150.02" x2="460.49" y1="4" y2="550.31" class="cls-4"/><line id="line14" x1="4" x2="734.65" y1="342.91" y2="383.21" class="cls-4"/><line id="line16" x1="266.98" x2="499.7" y1="542.55" y2="73.47" class="cls-4"/></g></g><g id="math_bullshit" data-name="math bullshit" transform="translate(-84.330002,-203.25999)"><polygon id="polygon21" points="519.9 229.4 624.08 230.85 579.36 354.69 486.86 325.93" class="cls-5"/><line id="line23" x1="630.34" x2="628.98" y1="236.66" y2="240.42" class="cls-6"/><line id="line25" x1="626.38" x2="591.26" y1="247.62" y2="344.89" class="cls-7"/><line id="line27" x1="589.95" x2="588.6" y1="348.49" y2="352.26" class="cls-6"/><line id="line29" x1="486.86" x2="577.92" y1="334.14" y2="362.68" class="cls-8"/><line id="line31" x1="522.15" x2="626.32" y1="221.71" y2="223.15" class="cls-8"/><line id="line33" x1="519.9" x2="615.2" y1="229.4" y2="255.42" class="cls-8"/><path id="path35" d="m 84.65,127.69 a 54.71,54.71 0 1 1 43.77,-63.8 54.73,54.73 0 0 1 -43.77,63.8 z" class="cls-9" transform="translate(84.33,203.26)"/><line id="line37" x1="212.76" x2="208.84" y1="267.14" y2="267.94" class="cls-10"/><line id="line39" x1="199.66" x2="167.56" y1="269.8" y2="276.32" class="cls-11"/><line id="line41" x1="162.97" x2="159.05" y1="277.25" y2="278.04" class="cls-10"/><line id="line43" x1="164.42" x2="153.51" y1="331.61" y2="222.71" class="cls-10"/><polygon id="polygon45" points="245.48 451.75 222 378.46 164.85 477.58" class="cls-5"/><polyline id="polyline47" points="141.74 405.44 140.21 400.68 144.97 399.16" class="cls-12"/><line id="line49" x1="155.13" x2="211" y1="395.9" y2="378" class="cls-13"/><polyline id="polyline51" points="216.08 376.37 220.84 374.84 222.36 379.61" class="cls-12"/><line id="line53" x1="225.45" x2="242.41" y1="389.23" y2="442.17" class="cls-14"/><polyline id="polyline55" points="243.96 446.98 245.48 451.75 240.72 453.27" class="cls-12"/><line id="line57" x1="230.56" x2="174.69" y1="456.53" y2="474.43" class="cls-13"/><polyline id="polyline59" points="169.62 476.06 164.85 477.58 163.33 472.82" class="cls-12"/><line id="line61" x1="160.24" x2="143.28" y1="463.2" y2="410.26" class="cls-14"/><path id="path63" d="m 454.45,215.59 c 7.17,-9.64 5.25,-9.34 13.47,-18.54 l 2.34,-2.62 A 12.36,12.36 0 0 1 481,190.25 v 0 l 66,8.26" class="cls-15" transform="translate(84.33,203.26)"/><path id="path65" d="M 488.17,191.15 481,248.54 a 20.24,20.24 0 0 1 -6.44,12.51 v 0" class="cls-15" transform="translate(84.33,203.26)"/><path id="path67" d="m 533.13,196.77 -7.46,59.61 a 21.7,21.7 0 0 0 1.83,11.84 v 0 a 1.16,1.16 0 0 0 1.53,0.6 v 0 c 1,1.24 18.5,0.11 23.42,-23.63" class="cls-15" transform="translate(84.33,203.26)"/></g><g id="dango" transform="translate(-84.330002,-203.25999)"><path id="path70" d="m 419.25,285.8 a 9.49,9.49 0 0 1 -6.7,-2.77 L 176,46.5 A 9.48,9.48 0 0 1 189.4,33.1 L 426,269.62 a 9.48,9.48 0 0 1 -6.7,16.18 z" class="cls-9" transform="translate(84.33,203.26)"/><path id="path72" d="M 275.51,80 A 52.12,52.12 0 1 1 223.4,27.86 52.11,52.11 0 0 1 275.51,80 Z" class="cls-9" transform="translate(84.33,203.26)"/><path id="path74" d="m 202.77,85.9 c -0.79,-4.5 -1.21,-3.89 -1.6,-8.57 L 201.06,76 a 4.7,4.7 0 0 1 1.66,-4.06 v 0 l 19.52,-16.06" class="cls-16" transform="translate(84.33,203.26)"/><path id="path76" d="m 204.84,70.2 14,17 a 7.73,7.73 0 0 1 1.77,5 v 0" class="cls-16" transform="translate(84.33,203.26)"/><path id="path78" d="m 218.14,59.26 14.5,17.64 a 8.35,8.35 0 0 0 3.75,2.59 v 0 a 0.43,0.43 0 0 0 0.56,-0.27 v 0 c 0.59,0.06 5.07,-6.48 1.23,-10.51" class="cls-16" transform="translate(84.33,203.26)"/><circle id="circle80" cx="280.27" cy="137.34" r="52.12" class="cls-17" transform="rotate(-31.71,680.30279,90.495046)"/><path id="path82" d="m 268.29,188.06 a 52.13,52.13 0 0 1 -38.75,-62.7 c 18.56,-66.65 114.67,-43.94 101.45,24 a 52.11,52.11 0 0 1 -62.7,38.74 z" class="cls-18" transform="translate(84.33,203.26)"/><path id="path84" d="m 374.45,157.81 a 52.12,52.12 0 1 1 -73.71,-1 52.13,52.13 0 0 1 73.71,1 z" class="cls-9" transform="translate(84.33,203.26)"/><path id="path86" d="m 419.25,285.8 a 9.49,9.49 0 0 1 -6.7,-2.77 L 354.5,225 a 9.48,9.48 0 0 1 13.4,-13.4 l 58.05,58 a 9.47,9.47 0 0 1 -6.7,16.17 z" class="cls-9" transform="translate(84.33,203.26)"/><line id="line88" x1="385.08" x2="387.92" y1="360.11" y2="362.93" class="cls-10"/><line id="line90" x1="394.19" x2="416.14" y1="369.16" y2="390.97" class="cls-19"/><line id="line92" x1="419.27" x2="422.11" y1="394.09" y2="396.91" class="cls-10"/><line id="line94" x1="461.72" x2="381.18" y1="364.33" y2="430.55" class="cls-10"/></g></svg>